<svg width="40.000000" height="40.000000" viewBox="0 0 40 38" fill="none" xmlns="http://www.w3.org/2000/svg" xmlns:xlink="http://www.w3.org/1999/xlink">
	<rect id="Facebook" width="40.000000" height="40.000000" transform="translate(0.000000 -0.999512)" fill="#FFFFFF" fill-opacity="0"/>
	<path id="Combined Shape" d="M20 -0.999512C8.9543 -0.999512 0 7.95459 0 19.0005C0 30.0464 8.9543 39.0005 20 39.0005C31.0457 39.0005 40 30.0464 40 19.0005C40 7.95459 31.0457 -0.999512 20 -0.999512ZM22.0846 19.8789L22.0846 30.7603L17.5826 30.7603L17.5826 19.8794L15.3333 19.8794L15.3333 16.1299L17.5826 16.1299L17.5826 13.8784C17.5826 10.8193 18.8526 9.00049 22.461 9.00049L25.4651 9.00049L25.4651 12.7505L23.5873 12.7505C22.1827 12.7505 22.0897 13.2744 22.0897 14.2524L22.0846 16.1294L25.4863 16.1294L25.0883 19.8789L22.0846 19.8789Z" clip-rule="evenodd" fill="#FFFFFF" fill-opacity="1.000000" fill-rule="evenodd"/>
</svg>
