<svg width="40.000000" height="40.000000" viewBox="0 0 40 40" fill="none" xmlns="http://www.w3.org/2000/svg" xmlns:xlink="http://www.w3.org/1999/xlink">
	<desc>
			Created with Pixso.
	</desc>
	<defs/>
	<rect width="40.000000" height="40.000000" transform="translate(0.000000 -0.999512)" fill="#FFFFFF" fill-opacity="0"/>
	<path d="M0 19.0005C0 7.95459 8.9543 -0.999512 20 -0.999512C31.0457 -0.999512 40 7.95459 40 19.0005C40 30.0464 31.0457 39.0005 20 39.0005C8.9543 39.0005 0 30.0464 0 19.0005ZM16.34 18.4292L16.34 20.6006L19.9439 20.6006C19.7987 21.5322 18.8546 23.333 16.34 23.333C14.1704 23.333 12.4003 21.5415 12.4003 19.334C12.4003 17.126 14.1704 15.335 16.34 15.335C17.5746 15.335 18.4007 15.8594 18.8727 16.312L20.5975 14.6562C19.49 13.625 18.0557 13.0005 16.34 13.0005C12.8269 13.0005 9.98557 15.8325 9.98557 19.334C9.98557 22.8354 12.8269 25.667 16.34 25.667C20.0074 25.667 22.4403 23.0977 22.4403 19.4785C22.4403 19.0625 22.3949 18.7456 22.3404 18.4292L16.34 18.4292ZM28.1411 18.4292L29.9567 18.4292L29.9567 20.2388L28.1411 20.2388L28.1411 22.0483L26.3256 22.0483L26.3256 20.2388L24.51 20.2388L24.51 18.4292L26.3256 18.4292L26.3256 16.6196L28.1411 16.6196L28.1411 18.4292Z" clip-rule="evenodd" fill="#FFFFFF" fill-opacity="1.000000" fill-rule="evenodd"/>
</svg>
