<svg width="40.000000" height="40.000000" viewBox="0 0 40 40" fill="none" xmlns="http://www.w3.org/2000/svg" xmlns:xlink="http://www.w3.org/1999/xlink">
	<desc>
			Created with Pixso.
	</desc>
	<defs/>
	<rect width="40.000000" height="40.000000" transform="translate(0.000000 -0.999512)" fill="#FFFFFF" fill-opacity="0"/>
	<path d="M20 39.0005C31.0457 39.0005 40 30.0464 40 19.0005C40 7.95459 31.0457 -0.999512 20 -0.999512C8.95431 -0.999512 0 7.95459 0 19.0005C0 30.0464 8.95431 39.0005 20 39.0005ZM16.6736 23.0688L16.6733 23.0688L16.6737 23.0684L16.6737 23.0684L16.6738 23.0684L25.9474 14.6997C26.3544 14.3384 25.8586 14.1621 25.3182 14.4897L13.8727 21.7109L8.9289 20.1675C7.86125 19.8408 7.85358 19.1069 9.1686 18.5796L28.4336 11.1514C29.3135 10.752 30.1627 11.3623 29.8268 12.7095L26.546 28.1699C26.3169 29.2686 25.6531 29.5312 24.7333 29.0234L19.7356 25.3311L17.3333 27.667C17.0543 27.9385 16.8333 28.167 16.3333 28.167L16.6736 23.0688Z" clip-rule="evenodd" fill="#FFFFFF" fill-opacity="1.000000" fill-rule="evenodd"/>
</svg>
